<svg xmlns="http://www.w3.org/2000/svg" viewBox="108 -2.5 215 37">
    <path 
        d="M139.007 26.994c0 5.211-2.909 7.506-8.394 7.506h-22.178l1.377-4.995h20.651c1.799 0 2.747-.494 2.747-2.511v-.557c0-2.016-.947-2.511-2.747-2.511h-14.071c-5.486 0-8.394-2.294-8.394-7.506v-.228c0-5.211 2.908-7.506 8.394-7.506h21.471l-1.376 4.995h-19.945c-1.799 0-2.747.494-2.747 2.511v.228c0 2.016.947 2.511 2.747 2.511h14.071c5.486 0 8.394 2.294 8.394 7.506v.557zm34.427 7.506h-20.132c-5.679 0-8.84-2.523-8.84-7.951v-9.911c0-5.428 3.16-7.951 8.84-7.951h19.984l-1.379 4.995h-18.454c-1.847 0-3.192.833-3.192 2.956v9.911c0 2.123 1.345 2.957 3.192 2.957h18.607l1.374 4.994zm30.565-10.928h-19.625V34.5h-5.798V8.687h5.798v9.981h19.625V8.687h5.797V34.5h-5.797zM284.32 34.5h-20.132c-5.679 0-8.84-2.523-8.84-7.951v-9.911c0-5.428 3.16-7.951 8.84-7.951h19.984l-1.379 4.995h-18.454c-1.847 0-3.192.833-3.192 2.956v9.911c0 2.123 1.345 2.957 3.192 2.957h18.607l1.374 4.994zm-67.748-7.951V8.687h5.798v17.862c0 2.123 1.345 2.957 3.192 2.957h14.599c1.847 0 3.192-.833 3.192-2.957V8.687h5.798v17.862c0 5.428-3.159 7.951-8.84 7.951h-14.899c-5.68 0-8.84-2.522-8.84-7.951zm100.599 0v-9.911c0-2.123-1.345-2.956-3.192-2.956h-16.614c-1.847 0-3.192.833-3.192 2.956v9.911c0 2.123 1.345 2.957 3.192 2.957h16.614c1.848 0 3.192-.833 3.192-2.957zm-3.042 7.951h-16.914c-5.679 0-8.84-2.523-8.84-7.951v-9.911c0-5.428 3.16-7.951 8.84-7.951h16.914c5.679 0 8.84 2.523 8.84 7.951v9.911c0 5.428-3.161 7.951-8.84 7.951zm-85.63-36.625h8.724L235.39 4.98h-5.058zm11.922 0h7.429l-4.498 7.105h-5.25zm-22.549 0h7.429l2.318 7.105h-5.249z" 
        fill="currentcolor"
    />
</svg>